Coordinates
version=1
nRows=13
nColumns=40
inDegrees=yes

Units are S.I. units (second, meters, Newtons, ...)
Angles are in degrees.

endheader
time	pelvis_tilt	pelvis_list	pelvis_rotation	pelvis_tx	pelvis_ty	pelvis_tz	hip_flexion_r	hip_adduction_r	hip_rotation_r	knee_angle_r	knee_angle_r_beta	ankle_angle_r	subtalar_angle_r	mtp_angle_r	hip_flexion_l	hip_adduction_l	hip_rotation_l	knee_angle_l	knee_angle_l_beta	ankle_angle_l	subtalar_angle_l	mtp_angle_l	lumbar_extension	lumbar_bending	lumbar_rotation	arm_flex_r	arm_add_r	arm_rot_r	elbow_flex_r	pro_sup_r	wrist_flex_r	wrist_dev_r	arm_flex_l	arm_add_l	arm_rot_l	elbow_flex_l	pro_sup_l	wrist_flex_l	wrist_dev_l
     35.07500000	     -5.43880461	     -4.29276117	     12.33652223	      1.06400178	      0.91853368	      0.49612199	      0.30300285	      2.85678368	    -15.37452034	     14.44052246	     14.44052246	     18.98107984	     -1.31378539	     -1.90766870	     28.35076619	     -5.17323233	      6.25614601	     23.47084002	     23.47084002	      5.12201379	     -7.27160362	      1.42895110	     -8.54912989	      2.56025743	      6.08931823	     69.26236484	    -18.29668848	      0.68485017	     73.13725013	     45.00910161	      0.00000000	      0.00000000	    -18.05653533	    -11.53609378	     29.47886434	     35.43857570	     43.32860515	      0.00000000	      0.00000000
     35.09857143	     -5.55789192	     -4.22780691	     11.94126486	      1.06607519	      0.91909636	      0.49089213	     -0.19829326	      2.37721122	    -15.60195841	     14.25674437	     14.25674437	     18.69903534	     -0.28401727	     -2.10440549	     28.18780536	     -4.79445491	      6.48565012	     24.12268315	     24.12268315	      5.66565511	     -8.40731488	      2.10019182	     -8.44164758	      2.58046962	      6.45869194	     68.51649350	    -18.36377176	      0.30533738	     72.43758013	     45.05040118	      0.00000000	      0.00000000	    -16.67734669	    -11.84822289	     28.63696086	     35.26119282	     43.48861955	      0.00000000	      0.00000000
     35.12214286	     -5.64914374	     -4.15548963	     11.44853280	      1.06813455	      0.91963624	      0.48570339	     -0.64127354	      1.86302323	    -15.71163516	     14.22225716	     14.22225716	     18.43850260	      0.70440418	     -2.39158301	     27.99528069	     -4.46762789	      6.52827992	     24.80749721	     24.80749721	      6.32984513	     -9.32759220	      2.97491891	     -8.35903482	      2.59111681	      6.68836610	     67.53872774	    -18.15674005	     -0.21229307	     71.56977676	     45.10316185	      0.00000000	      0.00000000	    -15.27269889	    -11.98842496	     27.39734855	     34.88269009	     43.71418009	      0.00000000	      0.00000000
     35.14571429	     -5.71960588	     -4.15334917	     10.96377244	      1.07015539	      0.92005378	      0.48040530	     -1.08893430	      1.42794424	    -15.75504635	     14.16153135	     14.16153135	     18.16343523	      1.50207153	     -2.55816784	     27.82664660	     -4.21594434	      6.50294706	     25.53006883	     25.53006883	      7.01160644	    -10.14094285	      3.69569219	     -8.27170802	      2.71612378	      6.85521991	     66.36368312	    -18.00223411	     -0.78504734	     70.39715505	     45.16586271	      0.00000000	      0.00000000	    -13.81919946	    -12.06773565	     26.02057301	     34.63002046	     43.95466936	      0.00000000	      0.00000000
     35.16928571	     -5.80004739	     -4.14061045	     10.44812304	      1.07208327	      0.92037902	      0.47509952	     -1.47754704	      0.95747438	    -15.78521552	     14.17528513	     14.17528513	     17.91926139	      2.32879489	     -2.77097522	     27.73119525	     -3.95926244	      6.40151014	     26.41162579	     26.41162579	      8.26491868	    -10.66149052	      5.63246128	     -8.20774983	      2.82684469	      6.45529065	     65.12636418	    -16.89315523	     -2.00067592	     68.44693265	     45.29206930	      0.00000000	      0.00000000	    -12.44299567	    -11.35134792	     21.43039328	     33.55668319	     44.70504073	      0.00000000	      0.00000000
     35.19285714	     -5.85471396	     -4.20840232	      9.85106352	      1.07398556	      0.92061308	      0.46990032	     -1.86488748	      0.58692465	    -15.61741460	     14.16452913	     14.16452913	     17.70026268	      3.02667820	     -2.71553955	     27.48373277	     -3.81788697	      6.30471338	     26.99037743	     26.99037743	      8.69596300	    -11.48743739	      5.63834700	     -8.14891863	      2.99837137	      6.79741316	     63.27987533	    -17.20642149	     -2.21493703	     66.94375127	     45.34485597	      0.00000000	      0.00000000	    -10.72718310	    -11.66174986	     20.72223692	     34.02351786	     44.83259677	      0.00000000	      0.00000000
     35.21642857	     -5.86568122	     -4.21282608	      9.25575581	      1.07584810	      0.92080094	      0.46452029	     -2.21264067	      0.06546022	    -15.65998218	     14.38250675	     14.38250675	     17.72377548	      4.07838012	     -2.48600656	     27.22144050	     -3.59288924	      6.15723615	     27.67574367	     27.67574367	      9.50475333	    -12.25943660	      6.56563912	     -8.11661894	      3.14375911	      6.53056282	     61.46718838	    -16.34176150	     -3.62317133	     64.21831116	     45.48515180	      0.00000000	      0.00000000	     -8.94633270	    -11.37277121	     18.20640042	     33.39499005	     45.23359612	      0.00000000	      0.00000000
     35.24000000	     -5.80535276	     -4.29602140	      8.63503880	      1.07764830	      0.92091801	      0.45929656	     -2.57092266	     -0.30415274	    -15.27913877	     14.61207616	     14.61207616	     17.56572430	      4.40289626	     -2.48335827	     26.86172584	     -3.51904607	      5.88119554	     28.25530056	     28.25530056	      9.99934760	    -12.85712380	      6.39309396	     -8.24352055	      3.41124514	      6.22855678	     58.98666891	    -15.95141578	     -3.47160491	     63.13596806	     45.50441067	      0.00000000	      0.00000000	     -7.17559297	    -11.68567847	     17.94438037	     33.92786603	     45.29335058	      0.00000000	      0.00000000
     35.26357143	     -5.89636715	     -4.31762088	      7.98527295	      1.07919165	      0.92077636	      0.45392797	     -2.58039457	     -0.93624311	    -15.37605134	     15.22844450	     15.22844450	     17.54808258	      5.52043465	     -2.62009917	     26.67487059	     -3.27683371	      5.75553137	     28.88112880	     28.88112880	     10.81527950	    -13.69909097	      7.37707666	     -8.08328746	      3.48865906	      6.58087657	     56.67794360	    -15.90784026	     -5.58649128	     58.70311212	     45.72101739	      0.00000000	      0.00000000	     -4.71217816	    -11.52305474	     16.26404944	     33.47224200	     45.55604402	      0.00000000	      0.00000000
     35.28714286	     -5.74373785	     -4.48430405	      7.38612613	      1.08080181	      0.92084423	      0.44868119	     -2.80838671	     -1.28402166	    -14.96095171	     15.82426866	     15.82426866	     17.35412735	      5.74410276	     -2.71716271	     26.22371682	     -3.28607723	      5.49369556	     29.40994199	     29.40994199	     11.35339935	    -14.22255734	      7.19679022	     -8.36855022	      3.85488123	      6.01699301	     53.64645072	    -15.33563886	     -5.43254006	     57.40621743	     45.74375100	      0.00000000	      0.00000000	     -2.71577600	    -11.82037810	     16.03066678	     34.10667866	     45.61486137	      0.00000000	      0.00000000
     35.31071429	     -5.88409111	     -4.47072789	      6.69397921	      1.08194514	      0.92033230	      0.44333179	     -2.15286806	     -2.11311304	    -14.73428942	     17.49116006	     17.49116006	     16.95005136	      5.99688376	     -4.44647541	     26.12444806	     -3.03026926	      5.21000155	     30.05804706	     30.05804706	     12.28113732	    -14.81237502	      8.19311561	     -8.15141470	      3.86588099	      6.48123830	     51.02097176	    -15.41106370	     -7.83867219	     51.73753877	     46.01431390	      0.00000000	      0.00000000	      0.17507871	    -11.69073394	     14.91298656	     33.71802821	     45.79298257	      0.00000000	      0.00000000
     35.33428571	     -5.88765319	     -4.55009901	      6.05068384	      1.08294620	      0.91986078	      0.43806329	     -1.31676673	     -2.84862377	    -14.22777787	     19.72983703	     19.72983703	     16.71857109	      5.74378533	     -5.40037174	     25.87993415	     -2.93426353	      4.82565540	     30.61241435	     30.61241435	     12.88222713	    -15.21495739	      8.07079596	     -8.29325648	      4.03432549	      6.41975835	     47.41016155	    -15.48075144	     -8.10193739	     49.33616607	     46.08875610	      0.00000000	      0.00000000	      2.63958805	    -11.97808623	     14.51877386	     34.63731994	     45.87735975	      0.00000000	      0.00000000
     35.35785714	     -5.86532762	     -4.65541556	      5.42248786	      1.08370732	      0.91924305	      0.43280039	     -0.10078513	     -3.62853962	    -13.58849731	     22.65727117	     22.65727117	     16.18747621	      5.15062602	     -7.05274264	     25.63228419	     -2.85289142	      4.48181791	     31.16068695	     31.16068695	     13.50956807	    -15.61132582	      8.05941360	     -8.45434875	      4.27407845	      6.37484946	     43.78406521	    -15.48503453	     -8.56161238	     46.35392125	     46.19358547	      0.00000000	      0.00000000	      5.34118247	    -12.20619073	     14.19807229	     35.39171489	     45.95338444	      0.00000000	      0.00000000
